<svg xmlns="http://www.w3.org/2000/svg" viewBox="0 0 124.03 124.01"><g id="Layer_2" data-name="Layer 2"><g id="Canteen_Page" data-name="Canteen Page"><path d="M51.15,56.51c-4.32-1.51-6-3.43-6.07-6.75,0-3.1,1.7-5.27,5.41-6.7-.47-1.9-1-3.82-1.43-5.73-.55-2.22-1-4.46-1.68-6.65a3.69,3.69,0,0,1,1-3.95,4.66,4.66,0,0,1,1.13-1.05c1.47-.71,2-1.9,2.4-3.45a10.2,10.2,0,0,1,6.54-7.15c.8-.31,1.1-.68,1-1.51a17.37,17.37,0,0,1,0-1.77,2.52,2.52,0,0,0-.09-.48H56.15a2.61,2.61,0,0,1-2.88-2.65c0-1.5,1.16-2.5,2.9-2.52,1,0,2,0,3.23,0,0-1.16,0-2.22,0-3.27a2.62,2.62,0,1,1,5.21,0c0,1,0,2.06,0,3.27,1.13,0,2.18,0,3.23,0,1.78,0,2.92,1.07,2.88,2.64s-1.15,2.51-2.89,2.53H64.62c0,1,0,2,0,2.93a1,1,0,0,0,.58.64,11.22,11.22,0,0,1,7.37,9,1.93,1.93,0,0,0,.7,1c.41.36.93.59,1.36.94,1.77,1.43,2.61,3.05,1.87,5.49-1.18,3.88-2,7.85-3,11.84C77,44.13,79,46.33,78.89,50s-2.48,5.74-6,6.46a1,1,0,0,0-.08.26c0,7.86-.07,15.72.09,23.57a23.52,23.52,0,0,0,2.67,10.1A15.08,15.08,0,0,0,80,95.72,7.48,7.48,0,0,1,83,101.93v.78c0,1.29-.35,2.73.1,3.83s1.72,1.74,2.78,2.72c0-.43.1-.73.11-1,0-1.22,0-2.44.08-3.65a5.62,5.62,0,0,1,2.13-4.24,14.15,14.15,0,0,0,5.5-9.88c.49-3.78.48-7.63.7-11.44-3.55-.68-5.8-2.48-6.25-5.86-.47-3.58,1.33-6,4.56-7.35-5-7.39-2-14.79,2.32-18.08a12.87,12.87,0,0,1,18.1,18c.21.12.41.25.63.35a6.67,6.67,0,0,1,4,7,6.76,6.76,0,0,1-5.26,5.74c-.3.08-.78.42-.78.64,0,4.08-.38,8.19.66,12.23.86,3.37,2.28,6.35,5.16,8.52a5.92,5.92,0,0,1,2.26,4.29,10.53,10.53,0,0,1,.07,1.77c-.12,1.65,0,3,1.74,4a5.37,5.37,0,0,1,2.34,4.78c0,2.06,0,4.13,0,6.2a2.55,2.55,0,0,1-2.69,2.72H3.53C.76,124,0,123.24,0,120.46c0-1.66,0-3.32,0-5a6.48,6.48,0,0,1,3.35-6,1.28,1.28,0,0,0,.74-1.31c0-1,0-1.92,0-2.88a6.13,6.13,0,0,1,2.22-5,14.31,14.31,0,0,0,5.51-10c.47-3.74.44-7.55.63-11.25-4-1.09-6-3.12-6.25-6.16s1.23-5.51,4.67-7.12A12.94,12.94,0,0,1,8.72,54.19a12.37,12.37,0,0,1,5.06-6.91A12.87,12.87,0,0,1,31.22,65.79c3.35,1.45,5.18,3.94,4.56,7.65-.53,3.2-2.73,4.93-5.85,5.51-.05.08-.12.14-.12.2,0,4.31-.39,8.64.75,12.88a14.35,14.35,0,0,0,5,8.12A6.25,6.25,0,0,1,38,105.4v3.77c1-.73,1.88-1.32,2.7-2a1.19,1.19,0,0,0,.31-.85c0-1.52,0-3,0-4.54a6.88,6.88,0,0,1,2.66-5.73c4.29-3.21,6.14-7.71,7-12.73a34,34,0,0,0,.49-5.61c.06-6.79,0-13.58,0-20.37C51.2,57.07,51.17,56.78,51.15,56.51Zm16.44,0H56.42v1.38c0,6.53,0,13.07,0,19.6a42.89,42.89,0,0,1-.59,6.7C54.71,90.41,52.34,96,47.09,100a2.09,2.09,0,0,0-.79,1.27c-.09,1.75,0,3.5,0,5.25H77.84c0-1.42,0-2.78,0-4.14a3,3,0,0,0-1.34-2.74,17.86,17.86,0,0,1-4.73-5.36,31.29,31.29,0,0,1-4.17-15.76c-.09-6.86,0-13.72,0-20.59Zm-58.29,52H32.78a20.6,20.6,0,0,0,0-2.85,2.81,2.81,0,0,0-.81-1.68,18.11,18.11,0,0,1-5.44-7.66A30.51,30.51,0,0,1,24.57,84c.05-1.65,0-3.3,0-5h-7c0,.38,0,.67-.05,1-.14,3.64,0,7.32-.49,10.91-.7,5.17-2.75,9.78-7,13.14a1.93,1.93,0,0,0-.66,1.2C9.23,106.28,9.3,107.35,9.3,108.46ZM99.43,79c0,.47,0,.84,0,1.2-.15,3.61,0,7.25-.51,10.8-.71,5.12-2.75,9.7-7,13a1.62,1.62,0,0,0-.63,1c-.08,1.16,0,2.33,0,3.45h23.45a28.29,28.29,0,0,0,0-3.07A2.28,2.28,0,0,0,114,104a17.79,17.79,0,0,1-6.32-10.25,54.82,54.82,0,0,1-1.09-8.19c-.17-2.15,0-4.32,0-6.55ZM42.07,118.75H81.94v-4.59c0-2.11-.32-2.43-2.43-2.43H44.45c-.3,0-.59,0-.89,0a1.43,1.43,0,0,0-1.48,1.47C42,115,42.07,116.82,42.07,118.75ZM55.85,43c4,0,7.89,0,11.79,0,.25,0,.63-.44.71-.74,1-3.85,1.94-7.72,2.93-11.58a1,1,0,0,0-.61-1.31c-.47-.2-.93-.45-1.42-.61a24,24,0,0,0-9.07-1,17.26,17.26,0,0,0-6.66,1.48c-.75.36-1,.78-.76,1.62.35,1.09.58,2.21.86,3.32C54.35,37.1,55.09,40,55.85,43ZM28.66,57.94a7.65,7.65,0,1,0-7.61,7.61A7.64,7.64,0,0,0,28.66,57.94Zm66.69-.06a7.64,7.64,0,1,0,7.71-7.62A7.65,7.65,0,0,0,95.35,57.88Zm23.35,60.88a2,2,0,0,0,.11-.38c0-.85,0-1.7,0-2.55,0-1.59-.46-2-2-2h-17c-3.61,0-7.22,0-10.83,0-1,0-1.69.39-1.76,1.42s0,2.33,0,3.56Zm-113.51,0H36.83c0-1.28.06-2.49,0-3.7a1.34,1.34,0,0,0-1.53-1.27H6.82a1.45,1.45,0,0,0-1.62,1.45C5.13,116.37,5.19,117.51,5.19,118.76ZM62.07,48.23H52.22c-1.26,0-1.93.51-1.95,1.45s.67,1.51,1.89,1.51H71.84c1.22,0,1.91-.58,1.9-1.51s-.69-1.46-1.94-1.46Zm40.86,25.52h7.85c1.19,0,1.92-.6,1.9-1.53s-.7-1.47-1.85-1.47q-7.85,0-15.7,0c-1.14,0-1.83.58-1.84,1.47s.7,1.52,1.89,1.52ZM21,73.75h7.85c1.14,0,1.83-.55,1.87-1.44s-.68-1.55-1.87-1.55q-7.8,0-15.59,0c-1.22,0-1.93.59-1.93,1.51s.73,1.49,1.93,1.5ZM57.29,22.66h9.33A5.17,5.17,0,0,0,62,19.54,5.45,5.45,0,0,0,57.29,22.66Z"/></g></g></svg>