<svg xmlns="http://www.w3.org/2000/svg" viewBox="0 0 106.26 105.82"><defs><style>.cls-1{fill:#ff4d00;}</style></defs><g id="Layer_2" data-name="Layer 2"><g id="Profile_Page" data-name="Profile Page"><path d="M55.92,21c2.45-1.18,3.73.08,4.71,2.23q8,17.49,16,35a53.81,53.81,0,0,0,3,6.58c2,3.23,1.74,5.74-.86,8.64-4,4.49-7.49,9.47-11.44,14a7,7,0,0,1-4.54,2.17c-6.43.25-12.88.23-19.32,0a6.42,6.42,0,0,1-4.15-2.08C35,82.48,31,77.21,26.71,72.11a4.52,4.52,0,0,1-.7-5.53c6.81-14.69,13.42-29.47,20.26-44.14.51-1.1,2.35-1.6,3.57-2.37l1,.77v6.4c0,9,.09,18-.1,27a6,6,0,0,1-2.12,3.9c-2.93,2.39-4.57,6.09-3.6,9.26a7.94,7.94,0,0,0,8.36,6.13,8.31,8.31,0,0,0,7.81-5.45,8.93,8.93,0,0,0-3.59-9.93c-.93-.69-2.07-1.92-2.08-2.92-.1-11.18,0-22.36,0-33.55C55.6,21.46,55.79,21.24,55.92,21Z"/><path class="cls-1" d="M16,73.15H.3V57.47c4.6.85,6-1.09,6.92-5.77,3.34-17,12.69-30.06,27.71-38.9,1.13-.67,2.27-1.31,3.39-2,.14-.09.13-.41.31-1-7.22,0-14.34-.08-21.45.11-.79,0-1.66,1.42-2.3,2.32-2.8,3.94-7,4.88-11.11,2.37A7.75,7.75,0,0,1,.84,4.48,7.93,7.93,0,0,1,11.68.94a4.61,4.61,0,0,1,2.2,1.71c1.69,3.47,4.66,3.47,7.88,3.41,5.71-.12,11.43,0,17.15,0,5.9,0,5.9,0,6.7-5.72H61c.11,1.6.23,3.25.37,5.28A29.38,29.38,0,0,0,64.86,6c7.41,0,14.83,0,22.25,0,2.11,0,3.56-.47,4.72-2.53C93.56.46,97.36-.65,100.74.37A7.69,7.69,0,0,1,106.26,8a8.1,8.1,0,0,1-6,7.79,7.55,7.55,0,0,1-8.39-3.52c-1.2-2.11-2.69-2.64-5-2.6-8.37.13-16.74,0-25.38,0-.17,2.17-.32,4.05-.48,6.14H45.78c-.31-1-.68-2.05-1.15-3.48A50.51,50.51,0,0,0,25.44,24.89C17.55,33,12.41,42.44,10.7,53.72c-.39,2.61-.07,3.92,3,3.78a3,3,0,0,1,2.26,1.88C16.12,63.84,16,68.32,16,73.15Zm-3.78-7.84c.77-3.15-.33-4.46-3.86-4.43-3.24,0-4.91.58-4.68,4.32.18,2.89.36,4.8,4.11,4.61C11,69.65,13.17,69.31,12.24,65.31Z"/><path d="M41.37,105.82V98.76h24v7.06Z"/></g></g></svg>