<svg xmlns="http://www.w3.org/2000/svg" viewBox="0 0 123.45 107.31"><defs><style>.cls-1{fill:#ff4d00;}</style></defs><g id="Layer_2" data-name="Layer 2"><g id="Profile_Page" data-name="Profile Page"><path d="M47.2,89.52H22.46c-4.14,0-8.29.06-12.44,0C4.19,89.31.1,85.41.08,79.54Q-.07,44.79.07,10c0-6.43,4-9.74,11.2-9.76Q61.76.1,112.25,0c8.13,0,11.19,3.06,11.19,11.27q0,33.83,0,67.66c0,7-3.52,10.57-10.58,10.56-11.19,0-22.38-.18-33.56-.35-2.36,0-3.06,1-2.61,3.12.56,2.74.92,5.52,1.69,8.19a3.94,3.94,0,0,0,2.38,2c1.1.39,2.52-.07,3.58.36a3.25,3.25,0,0,1,1.82,2.28c0,.69-1.18,1.52-2,2-.44.28-1.19.09-1.8.09-13.63,0-27.25.07-40.87-.08-1.36,0-2.71-1.35-4.06-2.06,1.39-.85,2.75-2.31,4.19-2.39,2.41-.14,3.51-.87,3.82-3.27C45.86,96.33,46.53,93.26,47.2,89.52ZM89,14.39v4.33c0,12.08.09,24.15-.05,36.22,0,3.2,1.12,4.37,4.25,4.34,5.72-.05,11.45,0,17.16.25,3.33.14,4.5-1.09,4.47-4.44-.13-13.89-.1-27.78,0-41.67,0-3.24-1.36-4.2-4.43-4.19q-48.64.09-97.29,0c-3,0-4.11,1-4.07,4,.1,8.9,0,17.8,0,26.71,0,8.19,0,8.09,8.22,7.93,3.09-.06,4-1.46,4-4.3-.08-8.54,0-17.07,0-25.61V14.52c3-.52,5,0,6.42,2.34a3.16,3.16,0,0,0,2.47,1.46c.77-.15,1.39-1.38,1.93-2.24a5.92,5.92,0,0,0,.37-1.85l2.81.14c1.39,1.74,2.29,2.87,3.2,4l3.72-4h1.88l3.16,4,3.35-4c1.29-.24,3-.58,3.37,2.26.08.66,1.47,1.8,1.9,1.65.81-.28,1.32-1.36,2-2s1.55-1.89,2.3-1.87,1.6,1.18,2.34,1.9,1.35,1.41,2,2.13c.68-.83,1.42-1.62,2-2.51a4.23,4.23,0,0,0,.28-1.48h2.86l3.43,4,3.34-3.95h2.09l3,3.92,3.65-4ZM119,69.6H4.72c0,3.08,0,5.75,0,8.43,0,5.44,1.5,6.91,7,6.92H62.9c16.57,0,33.14,0,49.71,0,3.42,0,5.91-1.14,6.27-4.65A106.23,106.23,0,0,0,119,69.6ZM52.47,40.22a10.89,10.89,0,0,0,1,1.11c1.37,1.09,2.49,2.51.75,3.82-.71.54-2.64.09-3.66-.52a41.34,41.34,0,0,1-6.17-4.54c-2-1.78-3.55-1.56-5.2.46C35.68,44.89,32,49.09,28.52,53.48c-1,1.22-1.34,2.92-2,4.41,1.53.48,3.06,1.36,4.61,1.38,9.63.13,19.26.06,28.89.06,6.71,0,13.41.06,20.12,0,3.54,0,4.58-1.58,2.74-4.2-5.79-8.26-11.74-16.42-17.67-24.59-1.5-2.05-3.23-2-4.82-.06C57.78,33.62,55.21,36.84,52.47,40.22Zm-8.58-5.58A4.89,4.89,0,0,0,49,29.7c.07-2.76-2.57-5.52-5.23-5.44a5.61,5.61,0,0,0-5.14,5.17A4.94,4.94,0,0,0,43.89,34.64Z"/><path class="cls-1" d="M101.74,15.79c2.22,1.45,5.34,2.64,5.28,3.62-.19,3-3.15,2.22-5.2,2.19s-5,.86-5-2.29C96.77,18.28,99.64,17.21,101.74,15.79Z"/><path class="cls-1" d="M101.72,30.35c-2-1.2-4.94-2.15-5-3.16-.06-3.38,3-2.22,5-2.24s5.24-1.11,5.31,2.37C107.08,28.21,103.93,29.15,101.72,30.35Z"/><path class="cls-1" d="M101.58,46.32C99.65,45,96.75,43.94,96.78,43c.09-3,3-2,4.88-2,2.1,0,5.2-1.09,5.41,2.28C107.12,44,103.89,45.07,101.58,46.32Z"/><path class="cls-1" d="M101.58,38.52c-2-1.37-4.84-2.48-4.79-3.46C96.94,31.81,100,33,101.91,33s5-1,5.13,2.13C107.08,36.07,103.88,37.15,101.58,38.52Z"/><path d="M66.2,77.66c-1.45.93-3,2.72-4.34,2.56s-2.48-2.24-3.7-3.48c1.25-1.21,2.42-3.28,3.76-3.39s2.87,1.71,4.31,2.69Z"/></g></g></svg>