<svg xmlns="http://www.w3.org/2000/svg" viewBox="0 0 101.57 99.06"><g id="Layer_2" data-name="Layer 2"><g id="Profile_Page" data-name="Profile Page"><path d="M80.65,99c-5.78,0-11.56,0-17.34,0-2.13,0-3.43-.4-3.34-3,.08-2.26.13-3.75,3.14-4,6.11-.46,7.41-2.72,5.28-8.58-1.82-5-3.73-10-5.91-14.78A4.67,4.67,0,0,0,59,66.53c-8.61-.19-17.22,0-25.83-.15-2,0-2.78.73-3.48,2.41-2.06,5-4.38,9.92-6.42,14.95-1.89,4.66-.79,6.62,4.1,7.84a10.34,10.34,0,0,0,2.64.54c3-.11,3.42,1.6,3.38,4.12,0,3-2,2.79-3.93,2.79-8.62,0-17.23,0-25.84,0C2,99,0,99.44,0,96.75c0-2.07-.59-4.33,2.71-4.8,7.18-1,9.17-7.29,11.57-12.59,6-13.28,11.51-26.77,17.25-40.16C36.77,27.05,42,14.91,47.34,2.83c.55-1.23,2-2.78,3.13-2.83s2.7,1.46,3.22,2.65Q65.24,29.41,76.54,56.27C80,64.49,83.21,72.83,86.83,81c2.46,5.57,5.47,10.78,12.67,11.3,2.83.21,2,2.72,1.79,4.28A3.38,3.38,0,0,1,99,98.89c-6.11.2-12.23.11-18.35.11ZM46.74,28.52c-4.11,9.68-7.81,18.37-11.62,27.35H58.21C54.43,46.84,50.79,38.18,46.74,28.52Z"/></g></g></svg>